<svg width="39" height="46" viewBox="0 0 39 46" fill="none" xmlns="http://www.w3.org/2000/svg">
<path d="M19.2698 45.4298C14.5342 45.3864 9.97709 43.6166 6.45356 40.4523C2.93003 37.2881 0.682204 32.9468 0.131824 28.2431C-0.418555 23.5394 0.766336 18.7965 3.46419 14.9043C6.16204 11.012 10.1874 8.23797 14.7851 7.10257L15.4209 9.79844C11.4465 10.7417 7.95689 13.1117 5.61472 16.4584C3.27256 19.8051 2.24096 23.8953 2.71583 27.9525C3.19069 32.0096 5.13895 35.7511 8.19064 38.4664C11.2423 41.1817 15.1849 42.6818 19.2698 42.6818C23.3546 42.6818 27.2972 41.1817 30.3489 38.4664C33.4006 35.7511 35.3488 32.0096 35.8237 27.9525C36.2986 23.8953 35.267 19.8051 32.9248 16.4584C30.5826 13.1117 27.093 10.7417 23.1186 9.79844L23.7544 7.10257C28.3521 8.23797 32.3775 11.012 35.0753 14.9043C37.7732 18.7965 38.9581 23.5394 38.4077 28.2431C37.8573 32.9468 35.6095 37.2881 32.086 40.4523C28.5624 43.6166 24.0054 45.3864 19.2698 45.4298Z" fill="white"/>
<path d="M17.8794 0.990234H20.66V9.32371H17.8794V0.990234Z" fill="white"/>
<path d="M15.0987 0.990234H23.4322V3.76241H15.0987V0.990234ZM10.0969 35.1295L13.7932 24.168L16.4382 25.0157L14.5138 30.6957L20.2107 28.7967L21.0585 31.4333L10.0376 35.1041L10.0969 35.1295ZM24.7377 27.8049L22.1182 26.9571L24.0171 21.2771L18.3202 23.1761L17.4724 20.5396L28.4933 16.8772L24.7377 27.8049Z" fill="white"/>
</svg>
