<svg width="38" height="38" viewBox="0 0 38 38" fill="none" xmlns="http://www.w3.org/2000/svg">
<path d="M37.8122 8.16159L34.4951 4.46262C34.3638 4.3075 34.161 4.22398 33.9581 4.22398H22.4794V0.715929C22.4794 0.322168 22.1573 0 21.7635 0H16.2986C15.9048 0 15.5826 0.322168 15.5826 0.715929V4.22398H7.32561C7.0989 4.22398 6.88412 4.33137 6.74093 4.52228C6.60968 4.7132 6.57388 4.93991 6.63354 5.16662L7.75516 8.6508L6.63354 12.135C6.56195 12.3498 6.59774 12.5884 6.74093 12.7793C6.87218 12.9702 7.08696 13.0776 7.32561 13.0776H15.5826V16.2158H4.12779C3.92494 16.2158 3.73403 16.2993 3.59084 16.4544L0.273709 20.1534C0.0350658 20.4278 0.0350658 20.8335 0.273709 21.108L3.59084 24.8069C3.7221 24.962 3.92494 25.0456 4.12779 25.0456H15.6065V37.1925C15.6065 37.5862 15.9287 37.9084 16.3224 37.9084H21.7874C22.1811 37.9084 22.5033 37.5862 22.5033 37.1925V25.0575H30.7603C30.987 25.0575 31.2018 24.9501 31.345 24.7592C31.4763 24.5683 31.5121 24.3416 31.4524 24.1149L30.3308 20.6307L31.4524 17.1465C31.524 16.9317 31.4882 16.6931 31.345 16.5022C31.2138 16.3112 30.999 16.2038 30.7603 16.2038H22.5033V13.0418H33.9581C34.161 13.0418 34.3519 12.9583 34.4951 12.8032L37.8122 9.10422C38.0628 8.85365 38.0628 8.43602 37.8122 8.16159ZM17.0264 1.43186H21.0595V4.22398H17.0264V1.43186ZM21.0595 36.4885H17.0264V25.0575H21.0595V36.4885ZM28.8751 20.8574L29.77 23.6256H4.43803L1.75329 20.6426L4.43803 17.6596H29.758L28.8631 20.4278C28.8273 20.5591 28.8273 20.7142 28.8751 20.8574ZM21.0595 16.2158H17.0264V13.0538H21.0595V16.2158ZM33.6479 11.6219H8.3279L9.22282 8.85365C9.27054 8.71046 9.27054 8.55535 9.22282 8.41216L8.3279 5.6439H33.6479L36.3326 8.62694L33.6479 11.6219Z" fill="#17BCB0"/>
</svg>
