<svg width="39" height="39" viewBox="0 0 39 39" fill="none" xmlns="http://www.w3.org/2000/svg">
<path d="M38.5776 8.83442L35.2667 5.14238C35.1356 4.98755 34.9332 4.90418 34.7307 4.90418H23.2735V1.4027C23.2735 1.00968 22.9519 0.68811 22.5589 0.68811H17.1042C16.7112 0.68811 16.3896 1.00968 16.3896 1.4027V4.90418H8.14801C7.92172 4.90418 7.70735 5.01137 7.56443 5.20193C7.43342 5.39249 7.39769 5.61877 7.45724 5.84506L8.57676 9.32272L7.45724 12.8004C7.38578 13.0148 7.42151 13.253 7.56443 13.4435C7.69544 13.6341 7.90981 13.7413 8.14801 13.7413H16.3896V16.8735H4.95618C4.75371 16.8735 4.56316 16.9569 4.42024 17.1117L1.10931 20.8038C0.871115 21.0777 0.871115 21.4826 1.10931 21.7566L4.42024 25.4486C4.55125 25.6034 4.75371 25.6868 4.95618 25.6868H16.4134V37.811C16.4134 38.204 16.735 38.5256 17.128 38.5256H22.5827C22.9757 38.5256 23.2973 38.204 23.2973 37.811V25.6987H31.5389C31.7652 25.6987 31.9795 25.5915 32.1225 25.401C32.2535 25.2104 32.2892 24.9841 32.2297 24.7578L31.1101 21.2802L32.2297 17.8025C32.3011 17.5881 32.2654 17.3499 32.1225 17.1594C31.9915 16.9688 31.7771 16.8616 31.5389 16.8616H23.2973V13.7055H34.7307C34.9332 13.7055 35.1237 13.6222 35.2667 13.4673L38.5776 9.7753C38.8277 9.52519 38.8277 9.10835 38.5776 8.83442ZM17.8307 2.11729H21.8562V4.90418H17.8307V2.11729ZM21.8562 37.1083H17.8307V25.6987H21.8562V37.1083ZM29.6571 21.5065L30.5504 24.2695H5.26584L2.58613 21.2921L5.26584 18.3146H30.5385L29.6452 21.0777C29.6095 21.2087 29.6095 21.3635 29.6571 21.5065ZM21.8562 16.8735H17.8307V13.7174H21.8562V16.8735ZM34.4211 12.2883H9.14843L10.0417 9.52519C10.0893 9.38227 10.0893 9.22745 10.0417 9.08453L9.14843 6.32145H34.4211L37.1008 9.2989L34.4211 12.2883Z" fill="white"/>
</svg>
