<svg width="64" height="70" viewBox="0 0 64 70" fill="none" xmlns="http://www.w3.org/2000/svg">
<path fill-rule="evenodd" clip-rule="evenodd" d="M13.6357 14.7734V17.0461H38.6348V35.2272H13.6357V37.4999H39.7712C40.0725 37.4999 40.3615 37.3801 40.5746 37.167C40.7877 36.9539 40.9075 36.6649 40.9075 36.3636V15.9098C40.9075 15.6084 40.7877 15.3194 40.5746 15.1063C40.3615 14.8932 40.0725 14.7735 39.7712 14.7734H13.6357Z" fill="#17BCB0"/>
<path fill-rule="evenodd" clip-rule="evenodd" d="M39.7704 26.1355V28.4081H54.8831L50.1385 36.9483C50.0444 37.1173 49.9951 37.3075 49.9951 37.5009C49.9951 37.6943 50.0444 37.8846 50.1385 38.0536L54.8786 46.5893H31.8169V36.3624H29.5444V47.7256C29.5445 48.027 29.6642 48.3159 29.8773 48.529C30.0903 48.7421 30.3793 48.8619 30.6807 48.8619H56.8138C57.0115 48.8619 57.2058 48.8102 57.3775 48.7121C57.5492 48.614 57.6923 48.473 57.7927 48.3027C57.8931 48.1323 57.9473 47.9386 57.95 47.7409C57.9527 47.5432 57.9037 47.3482 57.808 47.1752L52.4331 37.4987L57.808 27.8267C57.9048 27.6535 57.9546 27.458 57.9524 27.2596C57.9503 27.0613 57.8963 26.8669 57.7957 26.6959C57.6952 26.5249 57.5517 26.3834 57.3794 26.285C57.2071 26.1867 57.0121 26.1351 56.8138 26.1355H39.7704Z" fill="#17BCB0"/>
<path fill-rule="evenodd" clip-rule="evenodd" d="M1.15264 67.0431C1.00205 67.041 0.852532 67.0688 0.712784 67.1249C0.573036 67.1811 0.445843 67.2644 0.338596 67.3702C0.231349 67.4759 0.146187 67.6019 0.0880605 67.7408C0.0299335 67.8797 0 68.0288 0 68.1794C0 68.33 0.0299335 68.4791 0.0880605 68.618C0.146187 68.7569 0.231349 68.8829 0.338596 68.9886C0.445843 69.0944 0.573036 69.1777 0.712784 69.2339C0.852532 69.29 1.00205 69.3179 1.15264 69.3157H23.8464C23.997 69.3179 24.1465 69.29 24.2863 69.2339C24.426 69.1777 24.5532 69.0944 24.6605 68.9886C24.7677 68.8829 24.8529 68.7569 24.911 68.618C24.9691 68.4791 24.9991 68.33 24.9991 68.1794C24.9991 68.0288 24.9691 67.8797 24.911 67.7408C24.8529 67.6019 24.7677 67.4759 24.6605 67.3702C24.5532 67.2644 24.426 67.1811 24.2863 67.1249C24.1465 67.0688 23.997 67.041 23.8464 67.0431H1.15264Z" fill="white"/>
<path d="M35.2261 68.1805C35.2261 68.808 35.7348 69.3168 36.3624 69.3168C36.99 69.3168 37.4987 68.808 37.4987 68.1805C37.4987 67.5528 36.99 67.0442 36.3624 67.0442C35.7348 67.0442 35.2261 67.5528 35.2261 68.1805Z" fill="white"/>
<path fill-rule="evenodd" clip-rule="evenodd" d="M28.4242 67.0431C28.2737 67.041 28.1242 67.0688 27.9845 67.1249C27.8448 67.1811 27.7177 67.2644 27.6104 67.3702C27.5032 67.4759 27.4181 67.6019 27.36 67.7408C27.3019 67.8797 27.272 68.0288 27.272 68.1794C27.272 68.33 27.3019 68.4791 27.36 68.618C27.4181 68.7569 27.5032 68.8829 27.6104 68.9886C27.7177 69.0944 27.8448 69.1777 27.9845 69.2339C28.1242 69.29 28.2737 69.3179 28.4242 69.3157H31.8013C31.9519 69.3179 32.1013 69.29 32.241 69.2339C32.3807 69.1777 32.5079 69.0944 32.6151 68.9886C32.7223 68.8829 32.8074 68.7569 32.8655 68.618C32.9237 68.4791 32.9536 68.33 32.9536 68.1794C32.9536 68.0288 32.9237 67.8797 32.8655 67.7408C32.8074 67.6019 32.7223 67.4759 32.6151 67.3702C32.5079 67.2644 32.3807 67.1811 32.241 67.1249C32.1013 67.0688 31.9519 67.041 31.8013 67.0431H28.4242Z" fill="white"/>
<path fill-rule="evenodd" clip-rule="evenodd" d="M40.9237 67.0431C40.7731 67.041 40.6237 67.0688 40.484 67.1249C40.3443 67.1811 40.2171 67.2644 40.1099 67.3702C40.0027 67.4759 39.9176 67.6019 39.8595 67.7408C39.8014 67.8797 39.7715 68.0288 39.7715 68.1794C39.7715 68.33 39.8014 68.4791 39.8595 68.618C39.9176 68.7569 40.0027 68.8829 40.1099 68.9886C40.2171 69.0944 40.3443 69.1777 40.484 69.2339C40.6237 69.29 40.7731 69.3179 40.9237 69.3157H43.1646C43.3151 69.3179 43.4646 69.29 43.6043 69.2339C43.744 69.1777 43.8711 69.0944 43.9783 68.9886C44.0855 68.8829 44.1706 68.7569 44.2287 68.618C44.2869 68.4791 44.3168 68.33 44.3168 68.1794C44.3168 68.0288 44.2869 67.8797 44.2287 67.7408C44.1706 67.6019 44.0855 67.4759 43.9783 67.3702C43.8711 67.2644 43.744 67.1811 43.6043 67.1249C43.4646 67.0688 43.3151 67.041 43.1646 67.0431H40.9237Z" fill="white"/>
<path fill-rule="evenodd" clip-rule="evenodd" d="M47.7421 67.0431C47.5915 67.041 47.4419 67.0688 47.3022 67.1249C47.1624 67.1811 47.0352 67.2644 46.928 67.3702C46.8207 67.4759 46.7356 67.6019 46.6774 67.7408C46.6193 67.8797 46.5894 68.0288 46.5894 68.1794C46.5894 68.33 46.6193 68.4791 46.6774 68.618C46.7356 68.7569 46.8207 68.8829 46.928 68.9886C47.0352 69.0944 47.1624 69.1777 47.3022 69.2339C47.4419 69.29 47.5915 69.3179 47.7421 69.3157H62.4815C62.6321 69.3179 62.7816 69.29 62.9214 69.2339C63.0611 69.1777 63.1883 69.0944 63.2956 68.9886C63.4028 68.8829 63.488 68.7569 63.5461 68.618C63.6043 68.4791 63.6342 68.33 63.6342 68.1794C63.6342 68.0288 63.6043 67.8797 63.5461 67.7408C63.488 67.6019 63.4028 67.4759 63.2956 67.3702C63.1883 67.2644 63.0611 67.1811 62.9214 67.1249C62.7816 67.0688 62.6321 67.041 62.4815 67.0431H47.7421Z" fill="white"/>
<path fill-rule="evenodd" clip-rule="evenodd" d="M13.6666 0.000404047C13.427 -0.00599056 13.1915 0.0636606 12.9938 0.199177C12.7961 0.334694 12.6463 0.529207 12.5658 0.754993L9.72503 8.70911C9.64541 8.93182 9.63725 9.17399 9.7017 9.40156C9.76614 9.62912 9.89999 9.83071 10.0846 9.9786L12.9254 12.2512C13.1269 12.4126 13.3774 12.5006 13.6356 12.5006C13.8937 12.5006 14.1442 12.4126 14.3458 12.2512L17.1866 9.9786C17.3712 9.83071 17.505 9.62912 17.5694 9.40156C17.6339 9.17399 17.6257 8.93182 17.5461 8.70911L14.7053 0.754993C14.6284 0.539189 14.4881 0.351578 14.3027 0.216932C14.1174 0.0822862 13.8956 0.00682096 13.6666 0.000404047V0.000404047ZM13.6355 4.51462L15.1314 8.70911L13.6355 9.90785L12.1352 8.70911L13.6355 4.51462Z" fill="white"/>
<path fill-rule="evenodd" clip-rule="evenodd" d="M12.4985 11.3633V68.1794H14.7712V11.3633H12.4985Z" fill="white"/>
<path fill-rule="evenodd" clip-rule="evenodd" d="M38.8779 35.6611L30.3555 46.4562L32.1399 47.8633L40.6623 37.0682L38.8779 35.6611Z" fill="#17BCB0"/>
</svg>
