<svg width="76" height="57" viewBox="0 0 76 57" fill="none" xmlns="http://www.w3.org/2000/svg">
<path d="M53.6126 49.6986C53.1978 49.6986 52.7978 49.5357 52.4868 49.2246C51.8943 48.6025 51.9091 47.61 52.5312 47.0175L73.2103 27.0346C73.8324 26.4421 74.8249 26.4569 75.4174 27.0791C76.0099 27.7012 75.9951 28.6937 75.373 29.2862L54.6939 49.269C54.3829 49.5505 53.9977 49.6986 53.6126 49.6986Z" fill="white"/>
<path d="M74.2928 29.716C73.9076 29.716 73.5077 29.5678 73.2114 29.2716L52.5175 9.30355C51.8954 8.71102 51.8806 7.71855 52.4731 7.0964C53.0656 6.47425 54.0581 6.45944 54.6803 7.05196L75.3593 27.0348C75.9814 27.6273 75.9963 28.6198 75.4037 29.2419C75.1075 29.5678 74.6927 29.716 74.2928 29.716Z" fill="white"/>
<path d="M22.2384 49.6986C21.8533 49.6986 21.4533 49.5505 21.157 49.2542L0.477992 29.2862C-0.144156 28.6937 -0.15897 27.7012 0.433553 27.0791C1.02608 26.4569 2.01855 26.4421 2.6407 27.0346L23.3197 47.0175C23.9419 47.61 23.9567 48.6025 23.3642 49.2246C23.0531 49.5505 22.6532 49.6986 22.2384 49.6986Z" fill="white"/>
<path d="M1.55935 29.716C1.14458 29.716 0.744628 29.553 0.433553 29.2419C-0.15897 28.6198 -0.144156 27.6273 0.477992 27.0348L21.157 7.05196C21.7792 6.45944 22.7717 6.47425 23.3642 7.0964C23.9567 7.71855 23.9419 8.71102 23.3197 9.30355L2.65551 29.2864C2.34444 29.5826 1.9593 29.716 1.55935 29.716Z" fill="white"/>
<path d="M30.4896 56.3199C30.3562 56.3199 30.2081 56.3051 30.0748 56.2606C29.2453 56.0236 28.7564 55.1645 28.9934 54.3349L43.8509 1.14119C44.088 0.31166 44.9471 -0.177171 45.7766 0.0598386C46.6062 0.296848 47.095 1.15601 46.858 1.98554L32.0005 55.1793C31.8079 55.8755 31.171 56.3199 30.4896 56.3199Z" fill="#17BCB0"/>
</svg>
