<svg width="55" height="68" viewBox="0 0 55 68" fill="none" xmlns="http://www.w3.org/2000/svg">
<path d="M1 43.4358L4.35019 46.786" stroke="#17BCB0" stroke-width="2" stroke-linecap="round" stroke-linejoin="round"/>
<path d="M4.35019 43.4358L1 46.786" stroke="#17BCB0" stroke-width="2" stroke-linecap="round" stroke-linejoin="round"/>
<path d="M9.93464 57.9534C9.93464 58.1743 9.86914 58.3902 9.74643 58.5738C9.62372 58.7575 9.44932 58.9006 9.24526 58.9851C9.0412 59.0696 8.81667 59.0918 8.60004 59.0487C8.38342 59.0056 8.18443 58.8992 8.02826 58.7431C7.87208 58.5869 7.76572 58.3879 7.72263 58.1713C7.67954 57.9546 7.70166 57.7301 7.78618 57.526C7.8707 57.322 8.01384 57.1476 8.19748 57.0249C8.38113 56.9022 8.59704 56.8367 8.8179 56.8367C9.11408 56.8367 9.39812 56.9543 9.60755 57.1638C9.81698 57.3732 9.93464 57.6572 9.93464 57.9534Z" fill="white"/>
<path d="M50.6947 53.4865C52.2365 53.4865 53.4865 52.2365 53.4865 50.6947C53.4865 49.1528 52.2365 47.9028 50.6947 47.9028C49.1528 47.9028 47.9028 49.1528 47.9028 50.6947C47.9028 52.2365 49.1528 53.4865 50.6947 53.4865Z" stroke="#17BCB0" stroke-width="2" stroke-linecap="round" stroke-linejoin="round"/>
<path d="M27.263 1H26.1083C25.3729 1 24.6676 1.29214 24.1476 1.81215C23.6276 2.33216 23.3354 3.03744 23.3354 3.77284V52.3697L25.5689 61.3035H27.8024L30.0358 52.3697V3.77284C30.0358 3.03744 29.7437 2.33216 29.2237 1.81215C28.7037 1.29214 27.9984 1 27.263 1V1Z" stroke="#17BCB0" stroke-width="2" stroke-linejoin="round"/>
<path d="M26.6851 63.5369V61.3035" stroke="#17BCB0" stroke-width="2" stroke-linecap="round" stroke-linejoin="round"/>
<path d="M26.6856 22.2178C27.3023 22.2178 27.8023 21.7179 27.8023 21.1011C27.8023 20.4844 27.3023 19.9844 26.6856 19.9844C26.0688 19.9844 25.5688 20.4844 25.5688 21.1011C25.5688 21.7179 26.0688 22.2178 26.6856 22.2178Z" fill="#17BCB0"/>
<path d="M26.6856 25.5682C27.3023 25.5682 27.8023 25.0682 27.8023 24.4514C27.8023 23.8347 27.3023 23.3347 26.6856 23.3347C26.0688 23.3347 25.5688 23.8347 25.5688 24.4514C25.5688 25.0682 26.0688 25.5682 26.6856 25.5682Z" fill="#17BCB0"/>
<path d="M8.8179 23.3343C9.43466 23.3343 9.93464 22.8343 9.93464 22.2176C9.93464 21.6008 9.43466 21.1008 8.8179 21.1008C8.20115 21.1008 7.70117 21.6008 7.70117 22.2176C7.70117 22.8343 8.20115 23.3343 8.8179 23.3343Z" fill="white"/>
<path d="M8.8179 19.9842C9.43466 19.9842 9.93464 19.4842 9.93464 18.8675C9.93464 18.2507 9.43466 17.7507 8.8179 17.7507C8.20115 17.7507 7.70117 18.2507 7.70117 18.8675C7.70117 19.4842 8.20115 19.9842 8.8179 19.9842Z" fill="white"/>
<path d="M2.11673 4.34992C2.73349 4.34992 3.23346 3.84994 3.23346 3.23319C3.23346 2.61643 2.73349 2.11646 2.11673 2.11646C1.49998 2.11646 1 2.61643 1 3.23319C1 3.84994 1.49998 4.34992 2.11673 4.34992Z" fill="white"/>
<path d="M26.6856 28.9183C27.3023 28.9183 27.8023 28.4183 27.8023 27.8015C27.8023 27.1848 27.3023 26.6848 26.6856 26.6848C26.0688 26.6848 25.5688 27.1848 25.5688 27.8015C25.5688 28.4183 26.0688 28.9183 26.6856 28.9183Z" fill="#17BCB0"/>
<path d="M26.6856 32.2689C27.3023 32.2689 27.8023 31.7689 27.8023 31.1521C27.8023 30.5354 27.3023 30.0354 26.6856 30.0354C26.0688 30.0354 25.5688 30.5354 25.5688 31.1521C25.5688 31.7689 26.0688 32.2689 26.6856 32.2689Z" fill="#17BCB0"/>
<path d="M13.2842 14.4005C13.901 14.4005 14.4009 13.9005 14.4009 13.2837C14.4009 12.667 13.901 12.167 13.2842 12.167C12.6675 12.167 12.1675 12.667 12.1675 13.2837C12.1675 13.9005 12.6675 14.4005 13.2842 14.4005Z" fill="white"/>
<path d="M13.2842 11.0508C13.901 11.0508 14.4009 10.5509 14.4009 9.93411C14.4009 9.31736 13.901 8.81738 13.2842 8.81738C12.6675 8.81738 12.1675 9.31736 12.1675 9.93411C12.1675 10.5509 12.6675 11.0508 13.2842 11.0508Z" fill="white"/>
<path d="M13.2842 7.70075C13.901 7.70075 14.4009 7.20077 14.4009 6.58402C14.4009 5.96726 13.901 5.46729 13.2842 5.46729C12.6675 5.46729 12.1675 5.96726 12.1675 6.58402C12.1675 7.20077 12.6675 7.70075 13.2842 7.70075Z" fill="white"/>
<path d="M13.2842 4.34992C13.901 4.34992 14.4009 3.84994 14.4009 3.23319C14.4009 2.61643 13.901 2.11646 13.2842 2.11646C12.6675 2.11646 12.1675 2.61643 12.1675 3.23319C12.1675 3.84994 12.6675 4.34992 13.2842 4.34992Z" fill="white"/>
<path d="M12.1675 66.8872H41.2025" stroke="white" stroke-width="2" stroke-linecap="round" stroke-linejoin="round"/>
<path d="M8.81836 25.5679V42.3188L19.4273 52.9278" stroke="white" stroke-width="2" stroke-linecap="round" stroke-linejoin="round"/>
<path d="M13.2847 16.6343V34.502L18.8683 40.0856" stroke="white" stroke-width="2" stroke-linecap="round" stroke-linejoin="round"/>
<path d="M2.1167 6.58374V33.3853L5.46689 36.7355" stroke="white" stroke-width="2" stroke-linecap="round" stroke-linejoin="round"/>
<path d="M43.9942 23.3343C44.6109 23.3343 45.1109 22.8343 45.1109 22.2176C45.1109 21.6008 44.6109 21.1008 43.9942 21.1008C43.3774 21.1008 42.8774 21.6008 42.8774 22.2176C42.8774 22.8343 43.3774 23.3343 43.9942 23.3343Z" fill="white"/>
<path d="M43.9942 19.9842C44.6109 19.9842 45.1109 19.4842 45.1109 18.8675C45.1109 18.2507 44.6109 17.7507 43.9942 17.7507C43.3774 17.7507 42.8774 18.2507 42.8774 18.8675C42.8774 19.4842 43.3774 19.9842 43.9942 19.9842Z" fill="white"/>
<path d="M50.6944 4.34992C51.3111 4.34992 51.8111 3.84994 51.8111 3.23319C51.8111 2.61643 51.3111 2.11646 50.6944 2.11646C50.0776 2.11646 49.5776 2.61643 49.5776 3.23319C49.5776 3.84994 50.0776 4.34992 50.6944 4.34992Z" fill="white"/>
<path d="M39.5284 14.4005C40.1451 14.4005 40.6451 13.9005 40.6451 13.2837C40.6451 12.667 40.1451 12.167 39.5284 12.167C38.9116 12.167 38.4116 12.667 38.4116 13.2837C38.4116 13.9005 38.9116 14.4005 39.5284 14.4005Z" fill="white"/>
<path d="M39.5284 11.0508C40.1451 11.0508 40.6451 10.5509 40.6451 9.93411C40.6451 9.31736 40.1451 8.81738 39.5284 8.81738C38.9116 8.81738 38.4116 9.31736 38.4116 9.93411C38.4116 10.5509 38.9116 11.0508 39.5284 11.0508Z" fill="white"/>
<path d="M39.5284 7.70075C40.1451 7.70075 40.6451 7.20077 40.6451 6.58402C40.6451 5.96726 40.1451 5.46729 39.5284 5.46729C38.9116 5.46729 38.4116 5.96726 38.4116 6.58402C38.4116 7.20077 38.9116 7.70075 39.5284 7.70075Z" fill="white"/>
<path d="M39.5284 4.34992C40.1451 4.34992 40.6451 3.84994 40.6451 3.23319C40.6451 2.61643 40.1451 2.11646 39.5284 2.11646C38.9116 2.11646 38.4116 2.61643 38.4116 3.23319C38.4116 3.84994 38.9116 4.34992 39.5284 4.34992Z" fill="white"/>
<path d="M43.9942 25.5679V42.3188L33.3853 52.9278" stroke="white" stroke-width="2" stroke-linecap="round" stroke-linejoin="round"/>
<path d="M39.5275 16.6343V34.502L33.9438 40.0856" stroke="white" stroke-width="2" stroke-linecap="round" stroke-linejoin="round"/>
<path d="M50.6949 6.58374V33.3853L47.3447 36.7355" stroke="white" stroke-width="2" stroke-linecap="round" stroke-linejoin="round"/>
<path d="M30.0358 52.3694H23.3354" stroke="#17BCB0" stroke-width="2" stroke-linejoin="round"/>
<path d="M30.0358 7.70044H23.3354" stroke="#17BCB0" stroke-width="2" stroke-linejoin="round"/>
</svg>
