<svg width="14" height="23" viewBox="0 0 14 23" fill="none" xmlns="http://www.w3.org/2000/svg">
<path d="M13.75 0.632391C13.75 0.466631 13.6842 0.30766 13.5669 0.190449C13.4497 0.0732392 13.2908 0.00739102 13.125 0.00739102H10C8.4264 -0.0709954 6.88575 0.47663 5.71465 1.53062C4.54356 2.5846 3.83723 4.05926 3.75 5.63239V9.00739H0.625C0.45924 9.00739 0.300269 9.07324 0.183058 9.19045C0.0658481 9.30766 0 9.46663 0 9.63239V12.8824C0 13.0482 0.0658481 13.2071 0.183058 13.3243C0.300269 13.4415 0.45924 13.5074 0.625 13.5074H3.75V21.8824C3.75 22.0482 3.81585 22.2071 3.93306 22.3243C4.05027 22.4415 4.20924 22.5074 4.375 22.5074H8.125C8.29076 22.5074 8.44973 22.4415 8.56694 22.3243C8.68415 22.2071 8.75 22.0482 8.75 21.8824V13.5074H12.025C12.164 13.5094 12.2997 13.465 12.4106 13.3812C12.5215 13.2975 12.6014 13.1791 12.6375 13.0449L13.5375 9.79489C13.5624 9.70254 13.5657 9.60572 13.5473 9.51188C13.5288 9.41804 13.4891 9.32968 13.4311 9.2536C13.3732 9.17753 13.2985 9.11578 13.213 9.07309C13.1274 9.0304 13.0331 9.00793 12.9375 9.00739H8.75V5.63239C8.78109 5.32299 8.92639 5.03628 9.15753 4.82826C9.38867 4.62023 9.68904 4.50583 10 4.50739H13.125C13.2908 4.50739 13.4497 4.44154 13.5669 4.32433C13.6842 4.20712 13.75 4.04815 13.75 3.88239V0.632391Z" fill="#F8F8F8"/>
</svg>
