<svg width="23" height="23" viewBox="0 0 23 23" fill="none" xmlns="http://www.w3.org/2000/svg">
<path d="M22.4375 6.655C22.4249 5.70828 22.2477 4.77097 21.9137 3.885C21.6242 3.13769 21.1819 2.459 20.6152 1.89229C20.0485 1.32558 19.3698 0.883313 18.6225 0.59375C17.7479 0.265446 16.824 0.0879266 15.89 0.0687501C14.6875 0.0150001 14.3063 0 11.2537 0C8.20125 0 7.81 8.3819e-08 6.61625 0.0687501C5.6827 0.0880676 4.75919 0.265585 3.885 0.59375C3.13757 0.883112 2.45878 1.32531 1.89204 1.89204C1.32531 2.45878 0.883111 3.13757 0.59375 3.885C0.264789 4.75892 0.0876539 5.68264 0.07 6.61625C0.01625 7.82 0 8.20125 0 11.2537C0 14.3063 -9.31323e-09 14.6962 0.07 15.8913C0.08875 16.8263 0.265 17.7488 0.59375 18.625C0.883597 19.3722 1.32612 20.0507 1.89304 20.6172C2.45997 21.1837 3.13883 21.6257 3.88625 21.915C4.75804 22.2565 5.68172 22.4467 6.6175 22.4775C7.82125 22.5312 8.2025 22.5475 11.255 22.5475C14.3075 22.5475 14.6988 22.5475 15.8925 22.4775C16.8264 22.4591 17.7505 22.282 18.625 21.9538C19.3721 21.6639 20.0506 21.2215 20.6173 20.6548C21.184 20.0881 21.6264 19.4096 21.9163 18.6625C22.245 17.7875 22.4212 16.865 22.44 15.9288C22.4937 14.7262 22.51 14.345 22.51 11.2913C22.5075 8.23875 22.5075 7.85125 22.4375 6.655ZM11.2463 17.0262C8.05375 17.0262 5.4675 14.44 5.4675 11.2475C5.4675 8.055 8.05375 5.46875 11.2463 5.46875C12.7789 5.46875 14.2487 6.07758 15.3324 7.16131C16.4162 8.24503 17.025 9.71488 17.025 11.2475C17.025 12.7801 16.4162 14.25 15.3324 15.3337C14.2487 16.4174 12.7789 17.0262 11.2463 17.0262ZM17.255 6.6025C17.078 6.60266 16.9027 6.56792 16.7391 6.50026C16.5756 6.4326 16.427 6.33335 16.3018 6.20819C16.1766 6.08303 16.0774 5.93442 16.0097 5.77086C15.9421 5.6073 15.9073 5.432 15.9075 5.255C15.9075 5.07813 15.9423 4.90298 16.01 4.73957C16.0777 4.57616 16.1769 4.42768 16.302 4.30262C16.4271 4.17755 16.5755 4.07834 16.7389 4.01065C16.9024 3.94296 17.0775 3.90813 17.2544 3.90813C17.4312 3.90813 17.6064 3.94296 17.7698 4.01065C17.9332 4.07834 18.0817 4.17755 18.2068 4.30262C18.3318 4.42768 18.431 4.57616 18.4987 4.73957C18.5664 4.90298 18.6013 5.07813 18.6012 5.255C18.6013 6 17.9988 6.6025 17.255 6.6025Z" fill="#F8F8F8"/>
<path d="M11.2462 15.0013C13.3194 15.0013 15 13.3207 15 11.2475C15 9.17439 13.3194 7.49377 11.2462 7.49377C9.1731 7.49377 7.49249 9.17439 7.49249 11.2475C7.49249 13.3207 9.1731 15.0013 11.2462 15.0013Z" fill="#F8F8F8"/>
</svg>
