<svg width="25" height="25" viewBox="0 0 25 25" fill="none" xmlns="http://www.w3.org/2000/svg">
<path fill-rule="evenodd" clip-rule="evenodd" d="M9.28625 8.71125H13.9287V11.0238C14.5975 9.69375 16.3125 8.49875 18.8888 8.49875C23.8275 8.49875 25 11.1463 25 16.0037V25H20V17.11C20 14.3438 19.3313 12.7838 17.6287 12.7838C15.2675 12.7838 14.2863 14.465 14.2863 17.1087V25H9.28625V8.71125ZM0.7125 24.7875H5.7125V8.49875H0.7125V24.7875ZM6.42875 3.1875C6.42894 3.60659 6.34582 4.02154 6.18423 4.40823C6.02265 4.79492 5.78581 5.14564 5.4875 5.44C4.883 6.04078 4.06476 6.37707 3.2125 6.375C2.36174 6.37443 1.54539 6.039 0.94 5.44125C0.642764 5.14589 0.406732 4.79478 0.24543 4.40804C0.0841268 4.0213 0.000723915 3.60653 0 3.1875C0 2.34125 0.3375 1.53125 0.94125 0.93375C1.54611 0.335198 2.3628 -0.000374013 3.21375 3.12831e-07C4.06625 3.12831e-07 4.88375 0.33625 5.4875 0.93375C6.09 1.53125 6.42875 2.34125 6.42875 3.1875Z" fill="#F8F8F8"/>
</svg>
