<svg width="38" height="38" viewBox="0 0 38 38" fill="none" xmlns="http://www.w3.org/2000/svg">
<path d="M37.7175 8.16159L34.4004 4.46262C34.2691 4.3075 34.0663 4.22398 33.8634 4.22398H22.3847V0.715929C22.3847 0.322168 22.0625 0 21.6688 0H16.2038C15.8101 0 15.4879 0.322168 15.4879 0.715929V4.22398H7.23088C7.00417 4.22398 6.78939 4.33137 6.6462 4.52228C6.51495 4.7132 6.47915 4.93991 6.53881 5.16662L7.66044 8.6508L6.53881 12.135C6.46722 12.3498 6.50302 12.5884 6.6462 12.7793C6.77746 12.9702 6.99224 13.0776 7.23088 13.0776H15.4879V16.2158H4.03306C3.83022 16.2158 3.6393 16.2993 3.49612 16.4544L0.178982 20.1534C-0.0596607 20.4278 -0.0596607 20.8335 0.178982 21.108L3.49612 24.8069C3.62737 24.962 3.83022 25.0456 4.03306 25.0456H15.5118V37.1925C15.5118 37.5862 15.834 37.9084 16.2277 37.9084H21.6926C22.0864 37.9084 22.4086 37.5862 22.4086 37.1925V25.0575H30.6656C30.8923 25.0575 31.1071 24.9501 31.2503 24.7592C31.3815 24.5683 31.4173 24.3416 31.3577 24.1149L30.2361 20.6307L31.3577 17.1465C31.4293 16.9317 31.3935 16.6931 31.2503 16.5022C31.119 16.3112 30.9042 16.2038 30.6656 16.2038H22.4086V13.0418H33.8634C34.0663 13.0418 34.2572 12.9583 34.4004 12.8032L37.7175 9.10422C37.9681 8.85365 37.9681 8.43602 37.7175 8.16159ZM16.9317 1.43186H20.9648V4.22398H16.9317V1.43186ZM20.9648 36.4885H16.9317V25.0575H20.9648V36.4885ZM28.7803 20.8574L29.6752 23.6256H4.3433L1.65857 20.6426L4.3433 17.6596H29.6633L28.7684 20.4278C28.7326 20.5591 28.7326 20.7142 28.7803 20.8574ZM20.9648 16.2158H16.9317V13.0538H20.9648V16.2158ZM33.5532 11.6219H8.23318L9.12809 8.85365C9.17582 8.71046 9.17582 8.55535 9.12809 8.41216L8.23318 5.6439H33.5532L36.2379 8.62694L33.5532 11.6219Z" fill="#fff"/>
</svg>
