<svg width="70" height="67" viewBox="0 0 70 67" fill="none" xmlns="http://www.w3.org/2000/svg">
<path d="M14.9723 6.91038C15.6084 6.91038 16.124 6.39474 16.124 5.75866C16.124 5.12258 15.6084 4.60693 14.9723 4.60693C14.3362 4.60693 13.8206 5.12258 13.8206 5.75866C13.8206 6.39474 14.3362 6.91038 14.9723 6.91038Z" fill="white"/>
<path d="M10.3656 6.91038C11.0017 6.91038 11.5173 6.39474 11.5173 5.75866C11.5173 5.12258 11.0017 4.60693 10.3656 4.60693C9.72951 4.60693 9.21387 5.12258 9.21387 5.75866C9.21387 6.39474 9.72951 6.91038 10.3656 6.91038Z" fill="white"/>
<path d="M5.75866 6.91038C6.39474 6.91038 6.91038 6.39474 6.91038 5.75866C6.91038 5.12258 6.39474 4.60693 5.75866 4.60693C5.12258 4.60693 4.60693 5.12258 4.60693 5.75866C4.60693 6.39474 5.12258 6.91038 5.75866 6.91038Z" fill="white"/>
<path d="M67.9517 11.5173H1.15172C0.515972 11.5173 0 11.0013 0 10.3656C0 9.72984 0.515972 9.21387 1.15172 9.21387H67.9517C68.5875 9.21387 69.1034 9.72984 69.1034 10.3656C69.1034 11.0013 68.5875 11.5173 67.9517 11.5173Z" fill="white"/>
<path d="M1.15172 46.069C0.515972 46.069 0 45.553 0 44.9172V3.45517C0 1.55022 1.55022 0 3.45517 0H65.6483C67.5532 0 69.1034 1.55022 69.1034 3.45517V24.1862C69.1034 24.822 68.5875 25.3379 67.9517 25.3379C67.316 25.3379 66.8 24.822 66.8 24.1862V3.45517C66.8 2.82172 66.284 2.30345 65.6483 2.30345H3.45517C2.81942 2.30345 2.30345 2.82172 2.30345 3.45517V44.9172C2.30345 45.553 1.78748 46.069 1.15172 46.069Z" fill="white"/>
<path d="M48.3723 66.8002H21.8827C21.2469 66.8002 20.731 66.2842 20.731 65.6485C20.731 65.0127 21.2469 64.4967 21.8827 64.4967H24.1861C26.0911 64.4967 27.6413 62.9465 27.6413 61.0416V58.7381C27.6413 58.1024 28.1573 57.5864 28.793 57.5864C29.4288 57.5864 29.9447 58.1024 29.9447 58.7381V61.0416C29.9447 62.3384 29.514 63.5339 28.7907 64.4967H40.3126C39.5893 63.5339 39.1585 62.3384 39.1585 61.0416V54.1312C39.1585 53.4955 39.6745 52.9795 40.3103 52.9795C40.946 52.9795 41.462 53.4955 41.462 54.1312V61.0416C41.462 62.9465 43.0122 64.4967 44.9172 64.4967H48.3723C49.0081 64.4967 49.5241 65.0127 49.5241 65.6485C49.5241 66.2842 49.0081 66.8002 48.3723 66.8002Z" fill="white"/>
<path d="M40.3103 55.2829H3.45517C1.55022 55.2829 0 53.7326 0 51.8277V44.9173C0 44.2816 0.515972 43.7656 1.15172 43.7656H33.4C34.0358 43.7656 34.5517 44.2816 34.5517 44.9173C34.5517 45.5531 34.0358 46.0691 33.4 46.0691H2.30345V51.8277C2.30345 52.4611 2.81942 52.9794 3.45517 52.9794H40.3103C40.9461 52.9794 41.4621 53.4954 41.4621 54.1311C41.4621 54.7669 40.9461 55.2829 40.3103 55.2829Z" fill="white"/>
<path d="M40.3104 27.6416H38.0069C37.3712 27.6416 36.8552 27.1256 36.8552 26.4899C36.8552 25.8541 37.3712 25.3381 38.0069 25.3381H40.3104C40.9461 25.3381 41.4621 25.8541 41.4621 26.4899C41.4621 27.1256 40.9461 27.6416 40.3104 27.6416Z" fill="white"/>
<path d="M61.0414 18.4277H38.0069C37.3712 18.4277 36.8552 17.9117 36.8552 17.276C36.8552 16.6402 37.3712 16.1243 38.0069 16.1243H61.0414C61.6772 16.1243 62.1932 16.6402 62.1932 17.276C62.1932 17.9117 61.6772 18.4277 61.0414 18.4277Z" fill="white"/>
<path d="M61.0414 23.0346H38.0069C37.3712 23.0346 36.8552 22.5187 36.8552 21.8829C36.8552 21.2472 37.3712 20.7312 38.0069 20.7312H61.0414C61.6772 20.7312 62.1932 21.2472 62.1932 21.8829C62.1932 22.5187 61.6772 23.0346 61.0414 23.0346Z" fill="white"/>
<path d="M14.9725 27.6416H8.06212C7.42637 27.6416 6.9104 27.1256 6.9104 26.4899C6.9104 25.8541 7.42637 25.3381 8.06212 25.3381H14.9725C15.6082 25.3381 16.1242 25.8541 16.1242 26.4899C16.1242 27.1256 15.6082 27.6416 14.9725 27.6416Z" fill="white"/>
<path d="M31.0966 18.4277H8.06212C7.42637 18.4277 6.9104 17.9117 6.9104 17.276C6.9104 16.6402 7.42637 16.1243 8.06212 16.1243H31.0966C31.7324 16.1243 32.2483 16.6402 32.2483 17.276C32.2483 17.9117 31.7324 18.4277 31.0966 18.4277Z" fill="white"/>
<path d="M31.0966 23.0346H8.06212C7.42637 23.0346 6.9104 22.5187 6.9104 21.8829C6.9104 21.2472 7.42637 20.7312 8.06212 20.7312H31.0966C31.7324 20.7312 32.2483 21.2472 32.2483 21.8829C32.2483 22.5187 31.7324 23.0346 31.0966 23.0346Z" fill="white"/>
<path d="M52.4963 50.4839C52.4777 50.4839 52.4579 50.4826 52.4386 50.4807C52.1669 50.4493 51.9721 50.2032 52.0042 49.9315C52.2637 47.7008 51.43 46.8575 51.421 46.8498C51.4076 46.837 51.3941 46.8229 51.3819 46.8088C46.7828 41.4304 45.1577 36.7838 46.5527 32.9998C48.7924 26.919 57.9221 25.4054 58.3098 25.3439C58.4527 25.3215 58.5988 25.3625 58.7091 25.4567C58.8193 25.5509 58.8827 25.688 58.8827 25.8328V28.5871C58.8827 28.8607 58.661 29.0824 58.3874 29.0824C58.1137 29.0824 57.892 28.8607 57.892 28.5871V26.4346C55.8863 26.8658 49.214 28.6339 47.4806 33.3439C46.2221 36.7633 47.7837 41.0728 52.1227 46.1513C52.3092 46.3442 53.2845 47.49 52.9872 50.0456C52.9584 50.2981 52.7443 50.4839 52.4963 50.4839Z" fill="#17BCB0"/>
<path d="M61.5495 50.4838C61.4739 50.4838 61.3963 50.4665 61.3239 50.4293C61.0804 50.3043 60.9849 50.0057 61.1099 49.7629C61.1522 49.6795 62.1672 47.7097 63.1201 46.4396C63.4758 45.9654 62.2005 43.8833 60.3716 41.9243C57.6847 42.0121 55.8378 41.2989 54.8619 39.8205C52.983 36.974 55.1599 32.3934 55.2528 32.1999C55.3675 31.9628 55.6482 31.8571 55.8891 31.9583C56.132 32.0596 56.2531 32.3326 56.1653 32.5806C55.4553 34.587 55.4835 36.0147 56.2486 36.8234C57.5815 38.2307 61.0323 37.6129 62.2512 37.2566C62.3921 37.2143 62.5479 37.2393 62.6703 37.3233C64.148 38.337 64.6555 38.2275 64.7747 38.1698C64.9484 38.0871 64.9984 37.7661 65.0125 37.5822C65.0746 36.7959 64.7568 35.9756 64.1416 35.3316L58.2153 29.1246C56.9836 29.3752 51.6097 30.6677 50.2896 34.2762C49.4014 36.7042 50.5005 39.7507 53.5572 43.3309C53.8084 43.5764 55.3861 45.2976 55.5681 49.9692C55.579 50.2422 55.3662 50.4729 55.0926 50.4831C54.8273 50.5043 54.5889 50.2813 54.5786 50.0076C54.4037 45.5193 52.8792 44.0525 52.8638 44.0384C52.8503 44.0256 52.833 44.0077 52.8209 43.9936C49.5014 40.1115 48.337 36.7267 49.3604 33.9333C51.0484 29.3271 58.0128 28.1461 58.3082 28.098C58.471 28.0724 58.6331 28.1269 58.7459 28.2448L64.858 34.6459C65.6674 35.4931 66.0839 36.5908 66 37.6578C65.9314 38.5357 65.5277 38.9061 65.2021 39.0618C64.5312 39.3809 63.6071 39.1291 62.3018 38.2672C61.297 38.5274 57.3265 39.4002 55.5303 37.5033C55.3572 37.3207 55.2098 37.1201 55.0894 36.9003C55.0804 37.7494 55.2361 38.5889 55.6892 39.2746C56.487 40.4819 58.1211 41.0381 60.5543 40.9247C60.6889 40.9202 60.8362 40.974 60.9356 41.0772C61.9128 42.1019 65.0163 45.5604 63.9122 47.0323C63.0105 48.2345 62.0013 50.1935 61.991 50.2134C61.9026 50.3851 61.7295 50.4838 61.5495 50.4838Z" fill="#17BCB0"/>
<path d="M64.392 52.5781H49.4763C49.2027 52.5781 48.981 52.3564 48.981 52.0828V49.9873C48.981 49.7137 49.2027 49.4919 49.4763 49.4919H64.392C64.6657 49.4919 64.8874 49.7137 64.8874 49.9873V52.0828C64.8874 52.3564 64.6657 52.5781 64.392 52.5781ZM49.9717 51.5881H63.8973V50.4833H49.9717V51.5881Z" fill="#17BCB0"/>
<path d="M67.2993 58.0201H46.8777C46.604 58.0201 46.3823 57.7983 46.3823 57.5247C46.3823 51.9752 49.2993 51.6042 49.4237 51.5913C49.6902 51.5631 49.9389 51.7599 49.9677 52.0316C49.9965 52.3014 49.803 52.543 49.5345 52.575C49.4346 52.5897 47.5236 52.9243 47.3814 57.0293H66.7674C66.39 52.9121 64.4182 52.5872 64.331 52.575C64.0632 52.5378 63.8709 52.2918 63.9043 52.0233C63.9376 51.7554 64.1734 51.5619 64.4445 51.5913C64.5688 51.6048 67.4935 51.9803 67.794 57.4978C67.8017 57.6336 67.753 57.7669 67.6595 57.8656C67.5653 57.9643 67.4352 58.0201 67.2993 58.0201Z" fill="#17BCB0"/>
<path d="M59.1866 34.7304C58.3676 34.7304 57.7012 34.0639 57.7012 33.2449C57.7012 32.426 58.3676 31.7595 59.1866 31.7595C60.0056 31.7595 60.672 32.426 60.672 33.2449C60.672 34.0639 60.0062 34.7304 59.1866 34.7304ZM59.1866 32.7502C58.9136 32.7502 58.6912 32.9726 58.6912 33.2456C58.6912 33.5186 58.913 33.7409 59.1866 33.7409C59.4602 33.7409 59.6819 33.5186 59.6819 33.2456C59.6819 32.972 59.4602 32.7502 59.1866 32.7502Z" fill="#17BCB0"/>
</svg>
