<svg width="30" height="30" viewBox="0 0 30 30" fill="none" xmlns="http://www.w3.org/2000/svg">
<path d="M21.87 17.9784C21.4941 17.7881 19.6631 16.8947 19.3209 16.7672C18.9788 16.6453 18.7303 16.5816 18.4809 16.9575C18.2372 17.3241 17.5191 18.1631 17.2997 18.4078C17.0803 18.6525 16.8647 18.6712 16.4944 18.5053C16.1184 18.315 14.9175 17.9241 13.4916 16.6453C12.3778 15.6544 11.6363 14.4338 11.4159 14.0578C11.1966 13.6866 11.3916 13.4766 11.5772 13.2909C11.7478 13.1203 11.9531 12.8616 12.1434 12.6366C12.3244 12.4116 12.3825 12.2606 12.5147 12.0169C12.6366 11.7534 12.5737 11.5481 12.4809 11.3625C12.3881 11.1769 11.6409 9.33656 11.3287 8.60344C11.0306 7.87594 10.7184 7.96875 10.4887 7.96875C10.2741 7.94906 10.0247 7.94906 9.77625 7.94906C9.52781 7.94906 9.12187 8.04187 8.77969 8.39812C8.4375 8.77406 7.47094 9.67219 7.47094 11.4891C7.47094 13.3106 8.80875 15.0731 8.99438 15.3366C9.18469 15.5803 11.6259 19.3303 15.3713 20.9419C16.2647 21.3178 16.9584 21.5428 17.5003 21.7284C18.3937 22.0116 19.2094 21.9722 19.8534 21.8794C20.5659 21.7622 22.0603 20.9756 22.3734 20.0972C22.6912 19.2131 22.6912 18.4809 22.5984 18.315C22.5056 18.1444 22.2619 18.0516 21.8859 17.8856L21.87 17.9784ZM15.0778 27.1875H15.0581C12.8409 27.1875 10.6491 26.5866 8.73469 25.4634L8.28563 25.1953L3.59812 26.4159L4.85813 21.855L4.55531 21.3862C3.31731 19.4178 2.66053 17.1397 2.66062 14.8144C2.66062 8.00813 8.23219 2.45625 15.0872 2.45625C18.4078 2.45625 21.5231 3.75 23.8669 6.09375C25.0231 7.23618 25.9402 8.59742 26.5647 10.0981C27.1892 11.5987 27.5087 13.2087 27.5044 14.8341C27.495 21.6356 21.9281 27.1875 15.0825 27.1875H15.0778ZM25.6491 4.31156C22.7972 1.55719 19.0472 0 15.0581 0C6.83063 0 0.13125 6.67031 0.126563 14.8678C0.126563 17.4853 0.81 20.0391 2.11875 22.2994L0 30L7.92 27.9347C10.114 29.1176 12.5665 29.7398 15.0591 29.7459H15.0638C23.2959 29.7459 29.9953 23.0756 30 14.8725C30 10.9031 28.4522 7.16719 25.6303 4.35938L25.6491 4.31156Z" fill="#F8F8F8"/>
</svg>
